<svg width="106" height="106" viewBox="0 0 106 106" fill="none" xmlns="http://www.w3.org/2000/svg">
<path d="M106 53C106 42.5176 102.892 32.2706 97.0679 23.5548C91.2442 14.839 82.9667 8.04583 73.2822 4.03438C63.5977 0.0229402 52.9412 -1.02664 42.6602 1.01838C32.3792 3.0634 22.9355 8.11116 15.5233 15.5233C8.11116 22.9355 3.0634 32.3792 1.01838 42.6602C-1.02664 52.9412 0.0229403 63.5977 4.03438 73.2822C8.04583 82.9667 14.839 91.2442 23.5548 97.0679C32.2706 102.892 42.5176 106 53 106V102.245C43.2602 102.245 33.7391 99.3572 25.6407 93.9461C17.5423 88.5349 11.2304 80.8438 7.50314 71.8454C3.77587 62.847 2.80065 52.9454 4.7008 43.3927C6.60094 33.84 11.2911 25.0653 18.1782 18.1782C25.0653 11.2911 33.84 6.60094 43.3927 4.7008C52.9454 2.80065 62.847 3.77587 71.8454 7.50314C80.8438 11.2304 88.5349 17.5423 93.9461 25.6407C99.3572 33.7391 102.245 43.2602 102.245 53H106Z" fill="#FFEE00"/>
</svg>
