<svg width="48" height="48" viewBox="0 0 48 48" fill="none" xmlns="http://www.w3.org/2000/svg">
<rect width="48" height="48" rx="24" fill="#FFED00"/>
<path d="M33.975 23H16.375L24.675 14.7C25.075 14.3 25.075 13.7 24.675 13.3C24.275 12.9 23.675 12.9 23.275 13.3L13.275 23.3C13.175 23.4 13.075 23.5 13.075 23.6C12.975 23.8 12.975 24.1 13.075 24.4C13.175 24.5 13.175 24.6 13.275 24.7L23.275 34.7C23.475 34.9 23.775 35 23.975 35C24.175 35 24.475 34.9 24.675 34.7C25.075 34.3 25.075 33.7 24.675 33.3L16.375 25H33.975C34.575 25 34.975 24.6 34.975 24C34.975 23.4 34.575 23 33.975 23Z" fill="#0058EC"/>
</svg>
