<svg width="48" height="48" viewBox="0 0 48 48" fill="none" xmlns="http://www.w3.org/2000/svg">
<rect width="48" height="48" rx="24" fill="#FFED00"/>
<path d="M34.9 24.4C35 24.2 35 23.9 34.9 23.6C34.8 23.5 34.8 23.4 34.7 23.3L24.7 13.3C24.3 12.9 23.7 12.9 23.3 13.3C22.9 13.7 22.9 14.3 23.3 14.7L31.6 23H14C13.4 23 13 23.4 13 24C13 24.6 13.4 25 14 25H31.6L23.3 33.3C22.9 33.7 22.9 34.3 23.3 34.7C23.5 34.9 23.8 35 24 35C24.2 35 24.5 34.9 24.7 34.7L34.7 24.7C34.8 24.6 34.9 24.5 34.9 24.4Z" fill="#0058EC"/>
</svg>
